<svg width="48" height="48" viewBox="0 0 48 48" fill="none" xmlns="http://www.w3.org/2000/svg">
<path d="M23.9996 43.4687C23.7083 43.4687 23.4315 43.3442 23.2393 43.1266L19.2489 38.6215L13.3731 39.9211C13.0886 39.9838 12.7914 39.922 12.5561 39.751C12.3207 39.5799 12.17 39.3166 12.142 39.0271L11.5621 33.0369L6.04436 30.6349C5.77766 30.5189 5.5736 30.2937 5.48385 30.0177C5.39411 29.7408 5.42713 29.4394 5.57445 29.1888L8.62668 24.0021L5.57445 18.8155C5.42713 18.5648 5.39411 18.2626 5.48385 17.9866C5.5736 17.7097 5.77766 17.4853 6.04436 17.3693L11.5621 14.9665L12.142 8.97635C12.17 8.68679 12.3207 8.42348 12.5561 8.25245C12.7914 8.08143 13.0886 8.01962 13.3731 8.08227L19.2489 9.3819L23.2393 4.8768C23.4323 4.6592 23.7092 4.53474 23.9996 4.53474C24.29 4.53474 24.5677 4.6592 24.7599 4.8768L28.7502 9.3819L34.6261 8.08227C34.9106 8.01962 35.2077 8.08143 35.4431 8.25245C35.6785 8.42348 35.8292 8.68679 35.8571 8.97635L36.4371 14.9665L41.9548 17.3693C42.2215 17.4853 42.4256 17.7106 42.5153 17.9866C42.6051 18.2634 42.572 18.5648 42.4247 18.8155L39.3725 24.0021L42.4247 29.1888C42.572 29.4394 42.6051 29.7417 42.5153 30.0177C42.4256 30.2945 42.2215 30.5189 41.9548 30.6349L36.4371 33.0369L35.8571 39.0271C35.8292 39.3166 35.6785 39.5799 35.4431 39.751C35.2077 39.922 34.9106 39.9838 34.6261 39.9211L28.7502 38.6215L24.7599 43.1266C24.5668 43.3442 24.29 43.4687 23.9996 43.4687ZM19.613 36.4837C19.9 36.4837 20.1786 36.6056 20.3733 36.8257L23.9987 40.9202L27.6242 36.8257C27.8688 36.5497 28.2439 36.4278 28.6046 36.5074L33.9445 37.6885L34.4711 32.2453C34.5067 31.8778 34.7387 31.5586 35.0765 31.4113L40.0905 29.2286L37.3168 24.5152C37.1297 24.1969 37.1297 23.8023 37.3168 23.4848L40.0905 18.7714L35.0765 16.5887C34.7378 16.4414 34.5067 16.1222 34.4711 15.7548L33.9445 10.3115L28.6046 11.4926C28.2439 11.5722 27.8688 11.4503 27.6242 11.1743L23.9987 7.07982L20.3733 11.1743C20.1286 11.4503 19.7536 11.5722 19.3929 11.4926L14.053 10.3115L13.5263 15.7548C13.4908 16.1222 13.2588 16.4414 12.921 16.5887L7.90702 18.7714L10.6807 23.4848C10.8678 23.8032 10.8678 24.1977 10.6807 24.5152L7.90702 29.2286L12.921 31.4113C13.2596 31.5586 13.4908 31.8778 13.5263 32.2453L14.053 37.6885L19.3929 36.5074C19.4657 36.4913 19.5394 36.4837 19.6122 36.4837H19.613Z" fill="black"/>
<path d="M21.0278 30.8719C20.7205 30.8719 20.4292 30.7331 20.237 30.4935L16.6514 26.0434C16.2992 25.6065 16.3678 24.9664 16.8055 24.6151C17.2424 24.2629 17.8816 24.3314 18.2338 24.7692L21.0287 28.238L29.287 17.9882C29.6392 17.5513 30.2785 17.4828 30.7154 17.8341C31.1522 18.1863 31.2208 18.8256 30.8695 19.2625L21.8194 30.4943C21.6264 30.7339 21.336 30.8728 21.0287 30.8728L21.0278 30.8719Z" fill="black"/>
</svg>
