<svg width="48" height="48" viewBox="0 0 48 48" fill="none" xmlns="http://www.w3.org/2000/svg">
<path fill-rule="evenodd" clip-rule="evenodd" d="M28.2711 22.9294C26.9562 22.9294 26.2602 22.004 26.0562 21.4571L27.6429 20.8653C27.6429 20.8653 27.6417 20.8605 27.6383 20.8525C27.6816 20.9492 27.8452 21.2361 28.2711 21.2361C28.7477 21.2361 28.8976 20.8695 28.8993 20.8653C29.0627 20.4275 29.5504 20.204 29.9881 20.3674C30.4267 20.5308 30.6493 21.0185 30.4859 21.4562C30.2819 22.0032 29.5859 22.9286 28.2711 22.9286V22.9294ZM19.144 22.9294C17.8291 22.9294 17.1332 22.004 16.9291 21.4571L18.5157 20.8653C18.5157 20.8653 18.5145 20.8605 18.5112 20.8525C18.5545 20.9492 18.7181 21.2361 19.144 21.2361C19.5774 21.2361 19.74 20.9389 19.779 20.8475C19.7739 20.8593 19.7722 20.8653 19.7722 20.8653L21.3588 21.4571C21.1548 22.004 20.4588 22.9294 19.144 22.9294ZM21.4926 28.1779C21.6967 28.7248 22.3927 29.6502 23.7075 29.6502C25.0224 29.6502 25.7183 28.7248 25.9224 28.1779L24.3358 27.5861C24.3358 27.5861 24.3375 27.5801 24.3425 27.5683C24.3036 27.6597 24.141 27.9569 23.7075 27.9569C23.2815 27.9569 23.118 27.6698 23.0747 27.5732C23.0741 27.5716 23.0733 27.57 23.0725 27.5683C23.0732 27.5698 23.0739 27.5715 23.0747 27.5732C23.0781 27.5812 23.0793 27.5861 23.0793 27.5861L21.4926 28.1779Z" fill="black"/>
<path fill-rule="evenodd" clip-rule="evenodd" d="M41.5288 16.1159C41.6387 16.1404 41.75 16.1524 41.8608 16.1524C42.3908 16.1524 42.9064 15.8781 43.1901 15.387L45.3432 11.6583C45.7656 10.9268 45.5142 9.98783 44.7826 9.56534L38.7425 6.07793C38.011 5.65545 37.0721 5.90691 36.6496 6.63842L34.4965 10.3671C34.1692 10.9338 34.2464 11.625 34.6379 12.1042C34.2153 12.5341 33.655 13.1104 33.0216 13.7775C33.0046 13.7954 32.9878 13.8133 32.9711 13.8312C30.5894 11.4784 27.3843 10.1506 23.9995 10.1506C20.6154 10.1506 17.4097 11.4784 15.0278 13.8313C15.0114 13.8137 14.9949 13.7961 14.9782 13.7785C14.3447 13.1109 13.7841 12.5343 13.3613 12.1042C13.7527 11.6251 13.8298 10.934 13.5025 10.3674L11.3495 6.6387C10.927 5.90718 9.98803 5.65572 9.25651 6.07821L3.21642 9.56562C2.4849 9.98811 2.23343 10.9271 2.65592 11.6586L4.809 15.3873C5.09263 15.8775 5.60823 16.1527 6.13824 16.1527C6.24978 16.1527 6.36195 16.1405 6.47267 16.1157L6.52007 23.7056C6.45995 24.2399 6.39813 26.2736 8.53681 28.1938L11.8083 31.0268L13.356 32.4269C10.1592 34.4103 7.52561 37.2867 5.8494 40.6585C5.69277 40.9734 5.70971 41.3468 5.89513 41.6457C6.08055 41.9445 6.40738 42.1266 6.75874 42.1266H41.2409H41.2426C41.5939 42.1266 41.9207 41.9445 42.1061 41.6457C42.2907 41.3468 42.3085 40.9734 42.1519 40.6585C40.4755 37.2864 37.8423 34.4092 34.6453 32.4261L36.1931 31.0258L39.4511 28.2055L39.4647 28.1937C41.6034 26.2734 41.5415 24.2398 41.4814 23.7055L41.5288 16.1159ZM15.4553 33.5612C15.5405 33.5688 15.626 33.5727 15.7114 33.5727H15.7131C16.0445 33.5727 16.3754 33.515 16.6892 33.4004C18.8229 34.8903 21.3737 35.6987 23.9995 35.6987H24.0012C26.6262 35.6987 29.1774 34.8897 31.3112 33.4002C31.5754 33.4966 31.8558 33.5537 32.1452 33.5683C32.1943 33.5709 32.2426 33.5717 32.2909 33.5717L32.2926 33.5709C32.377 33.5709 32.461 33.5671 32.5443 33.5598C35.3911 35.0742 37.8158 37.3553 39.5137 40.0937H8.48763C10.185 37.3561 12.6095 35.0755 15.4553 33.5612ZM18.2507 31.9986C18.7963 30.8936 18.5703 29.5154 17.6122 28.6485L15.5963 26.8248L15.5819 26.8121C15.4161 26.6675 15.233 26.5077 15.0425 26.341C15.9261 25.8282 16.5192 24.8691 16.5124 23.7759L16.4717 17.3192C16.4901 17.0711 16.4953 16.4138 16.1613 15.5794C18.1901 13.4128 21.0119 12.1826 23.9995 12.1826C26.9864 12.1826 29.8083 13.413 31.8378 15.5798C31.5045 16.4134 31.5096 17.0703 31.528 17.3183L31.4874 23.775C31.4832 24.559 31.7846 25.299 32.3383 25.8594C32.5257 26.0494 32.7341 26.2106 32.9583 26.341C32.7678 26.5076 32.5846 26.6675 32.4187 26.8119L30.3893 28.6483C29.4313 29.5151 29.2052 30.8931 29.7505 31.9979C28.041 33.0812 26.0473 33.6658 24.0003 33.6658C21.9536 33.6658 19.9601 33.0819 18.2507 31.9986ZM35.3497 23.7987C35.3517 23.7514 35.3529 23.6997 35.3533 23.6429L35.3787 19.5941L37.4106 19.6068L37.3853 23.6556C37.3802 24.4878 37.2312 25.1863 36.5216 25.8874C36.1432 26.2607 34.0367 28.098 33.7616 28.3376L31.7532 30.1546C31.4281 30.4492 31.4027 30.953 31.6973 31.2789C31.8387 31.4347 32.0343 31.527 32.2477 31.538C32.461 31.549 32.6651 31.477 32.8217 31.3357L34.8537 29.4975L38.1134 26.6756C39.5917 25.3447 39.4824 24.0907 39.4655 23.951L39.4401 23.8418L39.4494 23.7605L39.5035 15.0274L36.3844 13.2265C35.9566 13.6584 35.2839 14.3448 34.4948 15.1762C33.5448 16.1761 33.5482 17.0338 33.5533 17.154L33.5685 17.2362L33.56 17.2819L33.5194 23.7868C33.5177 24.0281 33.6117 24.2567 33.7836 24.4311C33.9554 24.6055 34.1832 24.7021 34.4245 24.7037H34.4304C34.93 24.7037 35.338 24.299 35.3414 23.7987L35.3497 23.7987ZM36.5065 10.9505L41.6805 13.9375L43.3331 11.0749L38.1592 8.08791L36.5065 10.9505ZM8.55289 23.8818L8.49793 15.0263L11.6149 13.2266C12.0427 13.6586 12.7156 14.3455 13.505 15.1772C14.4499 16.172 14.4515 17.0263 14.4465 17.1533L14.4389 17.188L14.4804 23.7878C14.4838 24.2898 14.0773 24.7005 13.5752 24.7039C13.3365 24.7056 13.1054 24.6116 12.9309 24.4397C12.7565 24.2678 12.66 24.0401 12.6583 23.7988L12.6509 23.7988C12.6489 23.7515 12.6477 23.6998 12.6474 23.643L12.622 19.5942L10.59 19.6069L10.6154 23.6557C10.6204 24.4888 10.7695 25.1865 11.479 25.8875C11.8574 26.2609 13.9639 28.0981 14.2391 28.3378L16.2474 30.1547C16.5733 30.4493 16.5987 30.9539 16.3041 31.2791C16.0095 31.605 15.5049 31.6304 15.1797 31.3358L13.1638 29.5121L9.88808 26.6757C8.41234 25.3465 8.51816 24.0951 8.53594 23.952L8.55289 23.8818ZM6.31857 13.9378L4.66588 11.0752L9.83988 8.08819L11.4926 10.9508L6.31857 13.9378Z" fill="black"/>
</svg>
