<svg width="48" height="48" viewBox="0 0 48 48" fill="none" xmlns="http://www.w3.org/2000/svg">
<path fill-rule="evenodd" clip-rule="evenodd" d="M25.7952 18.68L26.4293 20.6104H26.4302C28.7517 19.8478 30.5211 18.0758 31.3183 15.8733H37.8009L39.8176 29.1346L41.8268 28.829L39.5476 13.8413H31.758C31.7745 13.6346 31.7828 13.4259 31.7828 13.2156C31.7828 8.92473 28.292 5.43393 24.0011 5.43393C19.7102 5.43393 16.2194 8.92473 16.2194 13.2156C16.2194 13.4257 16.228 13.6343 16.2448 13.8413H8.79756L5.49474 33.5127C5.23481 34.9097 5.59632 36.3279 6.4887 37.4031C7.32182 38.4081 8.52917 38.9839 9.80086 38.9839H26.7147V36.9527H9.80086C9.12523 36.9527 8.50463 36.6521 8.05251 36.1069C7.54536 35.4956 7.34128 34.6828 7.49284 33.8785L10.5163 15.8733H16.6902C17.4646 17.9933 19.1428 19.7298 21.3375 20.5291L22.0326 18.6199C20.6576 18.1192 19.5569 17.1205 18.905 15.8733H29.1026C28.426 17.175 27.2593 18.1995 25.7952 18.68ZM29.7163 13.8413C29.7385 13.6353 29.7499 13.4265 29.7499 13.2156C29.7499 10.0457 27.1711 7.46592 24.0003 7.46592C20.8295 7.46592 18.2505 10.0449 18.2505 13.2156C18.2505 13.4262 18.2622 13.6351 18.2849 13.8413H29.7163Z" fill="black"/>
<path fill-rule="evenodd" clip-rule="evenodd" d="M31.7761 41.9395C31.9336 42.3197 32.3044 42.5652 32.7133 42.5652L32.7142 42.5635H32.7489C33.1714 42.55 33.5405 42.2757 33.6768 41.8752L35.2802 37.1539L39.5714 41.4451C39.7702 41.6431 40.03 41.7421 40.2898 41.7423C40.2897 41.7423 40.2895 41.7423 40.2894 41.7423H40.2902C40.2901 41.7423 40.2899 41.7423 40.2898 41.7423C40.5496 41.7421 40.8102 41.6431 41.0082 41.4451C41.4053 41.048 41.4053 40.4054 41.0082 40.0083L36.7155 35.7155L41.4417 34.1104C41.8413 33.9741 42.1156 33.605 42.13 33.1825C42.1444 32.76 41.8955 32.3731 41.5052 32.2105L27.1059 26.2111C26.7258 26.0527 26.288 26.1391 25.9967 26.4303C25.7055 26.7216 25.6191 27.1593 25.7775 27.5395L31.7761 41.9395ZM32.6168 38.6756L28.6011 29.0364L38.2395 33.0521L34.5168 34.317C34.2179 34.4186 33.9834 34.6531 33.8818 34.952L32.6168 38.6756Z" fill="black"/>
</svg>
