<svg width="48" height="48" viewBox="0 0 48 48" fill="none" xmlns="http://www.w3.org/2000/svg">
<path fill-rule="evenodd" clip-rule="evenodd" d="M29.7055 15.6467C29.7279 15.4402 29.7391 15.2319 29.7391 15.023C29.7391 11.8587 27.1647 9.28342 23.9996 9.28342C20.8344 9.28342 18.26 11.8578 18.26 15.023C18.26 15.2318 18.2712 15.4401 18.2936 15.6467H29.7055ZM16.2563 15.6467C16.2398 15.4396 16.2316 15.2315 16.2316 15.023C16.2316 10.7397 19.7162 7.255 23.9996 7.255C28.2829 7.255 31.7676 10.7397 31.7676 15.023C31.7676 15.2315 31.7592 15.4396 31.7427 15.6467H39.5196L42.4845 35.1432C42.7279 36.5834 42.3366 38.0379 41.4111 39.135C40.5474 40.1585 39.3041 40.745 37.9983 40.745H9.82526C8.5558 40.745 7.35058 40.1703 6.51893 39.1671C5.62812 38.0937 5.26723 36.6781 5.5267 35.2835L8.82372 15.6467H16.2563ZM7.52216 35.6486L10.5403 17.6751H37.7769L40.4814 35.4568L40.484 35.4754C40.6302 36.329 40.4028 37.186 39.8619 37.8275C39.3776 38.4014 38.7167 38.7175 38 38.7175H9.8261C9.15165 38.7175 8.53214 38.4174 8.08082 37.8731C7.57456 37.2621 7.37087 36.4515 7.52216 35.6486Z" fill="black"/>
<path fill-rule="evenodd" clip-rule="evenodd" d="M20.6571 27.4726C20.9436 27.5199 21.2496 27.5436 21.5665 27.5436L21.5648 27.5427C21.8725 27.5427 22.17 27.5191 22.4489 27.4717C22.7337 27.4244 23.0008 27.3441 23.2434 27.2351C23.491 27.1244 23.7107 26.9765 23.8967 26.7956C24.086 26.6114 24.2339 26.384 24.3362 26.1186C24.4367 25.8566 24.4883 25.5498 24.4883 25.2058V22.1843H23.1386V25.0993C23.1386 25.4442 23.0718 25.7053 22.9416 25.8744C22.8081 26.0468 22.6331 26.1617 22.4058 26.2259C22.1607 26.2953 21.8885 26.3299 21.5657 26.3299C21.2428 26.3299 20.9521 26.2953 20.7019 26.2259C20.4703 26.1626 20.2945 26.0476 20.1644 25.876C20.0359 25.7062 19.9708 25.445 19.9708 25.0993V22.1843H18.6211V25.2058C18.6211 25.5498 18.6726 25.8575 18.7732 26.1186C18.8755 26.3832 19.02 26.6105 19.2034 26.7939C19.3851 26.9748 19.6023 27.1235 19.8508 27.2351C20.0934 27.345 20.3647 27.4244 20.6571 27.4726ZM12.1252 27.4447H15.1087L15.1079 27.4464C15.6522 27.4464 16.1238 27.3745 16.5083 27.2342C16.8979 27.0922 17.2183 26.8936 17.4608 26.646C17.7034 26.3983 17.8826 26.1093 17.9941 25.7881C18.104 25.472 18.1598 25.1373 18.1598 24.7967C18.1598 24.4561 18.1099 24.1265 18.011 23.8172C17.9096 23.4986 17.738 23.2137 17.4997 22.9703C17.2622 22.7278 16.9427 22.5334 16.5497 22.3931C16.1626 22.2553 15.6784 22.1852 15.1087 22.1852H12.1252V27.4447ZM15.0859 26.2395H13.475H13.4741V23.3904H15.085C15.429 23.3904 15.7155 23.4301 15.937 23.5095C16.1525 23.5873 16.3232 23.6904 16.4466 23.818C16.57 23.9465 16.6596 24.0927 16.712 24.255C16.7669 24.4249 16.7948 24.6057 16.7948 24.7959C16.7948 24.9861 16.7669 25.1712 16.7112 25.3461C16.6588 25.5134 16.5692 25.6664 16.4449 25.7991C16.3224 25.931 16.1508 26.0375 15.9361 26.1169C15.7155 26.198 15.429 26.2395 15.0859 26.2395ZM26.981 27.4447H28.3307V23.3676H30.4149V22.1852H24.8892V23.3676H26.981V27.4447ZM32.799 27.4447H34.1555V25.7738L36.456 22.1852H34.8806L33.4886 24.4773L32.073 22.1852H30.4984L32.799 25.7738V27.4447ZM12.6079 34.2061H13.9577V32.2436H17.0611V31.1144H13.9577V30.1289H17.7457V28.9465H12.6079V34.2061ZM22.3518 34.2061H23.7016V34.2052V32.8648C23.7016 32.5521 23.6306 32.3078 23.492 32.1379C23.3897 32.0137 23.2519 31.9173 23.0803 31.8506C23.1488 31.8151 23.2139 31.7762 23.2756 31.7331C23.4429 31.6165 23.5748 31.4618 23.6686 31.275C23.7607 31.0899 23.808 30.8651 23.808 30.6065C23.808 30.227 23.7185 29.9092 23.541 29.6599C23.3643 29.4122 23.1167 29.2288 22.804 29.113C22.5048 29.0023 22.1507 28.9465 21.7526 28.9465H18.2443V34.2061H19.594V32.3881H21.3342C21.6393 32.3881 21.8726 32.4067 22.029 32.4439C22.154 32.4735 22.2377 32.5216 22.2791 32.5867C22.3273 32.6636 22.3518 32.7803 22.3518 32.9341V34.2061ZM21.7526 31.2589H19.594V30.1518H21.7526C21.996 30.1518 22.1802 30.1991 22.2986 30.2912C22.4059 30.3749 22.4583 30.4974 22.4583 30.6673C22.4583 30.8524 22.4025 30.9927 22.2884 31.0975C22.1718 31.2049 21.9918 31.2589 21.7526 31.2589ZM24.5273 34.2061H29.6728V33.0237H25.8771V32.1523H28.9806V31.0155H25.8771V30.1289H29.6652V28.9465H24.5273V34.2061ZM30.3768 34.2061H35.5223V33.0237H31.7266V32.1523H34.8301V31.0155H31.7266V30.1289H35.5146V28.9465H30.3768V34.2061Z" fill="black"/>
</svg>
