<svg width="48" height="48" viewBox="0 0 48 48" fill="none" xmlns="http://www.w3.org/2000/svg">
<g clip-path="url(#clip0_10810_317)">
<path fill-rule="evenodd" clip-rule="evenodd" d="M24.0169 42.5652C28.9694 42.5607 33.6244 40.6299 37.1272 37.1271C40.6341 33.6211 42.5653 28.9585 42.5653 23.9996C42.5653 19.0406 40.6341 14.3789 37.1272 10.872C33.6211 7.36513 28.9585 5.43388 23.9996 5.43388C19.0407 5.43388 14.3789 7.36513 10.8721 10.872C7.36517 14.3781 5.43393 19.0406 5.43393 23.9996C5.43393 28.9585 7.36517 33.6202 10.8721 37.1271C14.3736 40.6295 19.0286 42.5602 23.9803 42.5652C23.9865 42.5653 23.9927 42.5653 23.9988 42.5653C24.0048 42.5653 24.0109 42.5653 24.0169 42.5652ZM20.4593 40.1517C19.9177 39.3111 19.3875 38.1968 18.8985 36.7301C18.3997 35.234 17.9992 33.5258 17.7065 31.6755H9.35807C11.5977 35.9304 15.6383 39.096 20.4593 40.1517ZM8.45796 29.6435H17.4349C17.2363 27.8441 17.1332 25.9443 17.1332 23.9996C17.1332 22.2352 17.2182 20.5077 17.3823 18.8587H8.28391C7.7531 20.4775 7.46593 22.2056 7.46593 23.9996C7.46593 25.9807 7.81616 27.8816 8.45796 29.6435ZM9.10415 16.8267H17.6305C17.9283 14.7826 18.3552 12.8998 18.8985 11.2691C19.3875 9.80235 19.9177 8.688 20.4593 7.8474C15.4502 8.94432 11.2836 12.319 9.10415 16.8267ZM27.5381 40.1521C32.3599 39.0968 36.4012 35.931 38.6412 31.6755H30.2907C29.998 33.5258 29.5975 35.234 29.0991 36.7301C28.61 38.1971 28.0797 39.3115 27.5381 40.1521ZM39.5413 29.6435C40.1831 27.8816 40.5333 25.9807 40.5333 23.9996C40.5333 22.2038 40.2456 20.4741 39.7138 18.8539V18.8587H30.6155C30.7795 20.5077 30.8644 22.2352 30.8644 23.9996C30.8644 25.9443 30.7612 27.8441 30.5625 29.6435H39.5413ZM38.8951 16.8267C36.7154 12.3184 32.548 8.94347 27.538 7.84698C28.0797 8.68763 28.61 9.8021 29.0991 11.2691C29.6428 12.8998 30.0697 14.7826 30.3675 16.8267H38.8951ZM27.1712 36.0875C27.6076 34.778 27.9641 33.2896 28.2335 31.6755H19.7641C20.0335 33.2896 20.39 34.778 20.8263 36.0875C21.9185 39.3649 23.1818 40.5324 23.9988 40.5324C24.8158 40.5324 26.0791 39.3649 27.1712 36.0875ZM19.4789 29.6435H28.5187C28.725 27.8556 28.8324 25.9539 28.8324 23.9996C28.8324 22.2275 28.7441 20.4987 28.5739 18.8587H19.4237C19.2535 20.4987 19.1652 22.2275 19.1652 23.9996C19.1652 25.9539 19.2726 27.8556 19.4789 29.6435ZM19.6836 16.8267H28.3139C28.0368 15.0183 27.6526 13.3561 27.1712 11.9118C26.0791 8.63433 24.8158 7.46677 23.9988 7.46677C23.1818 7.46677 21.9185 8.63433 20.8263 11.9118C20.345 13.3561 19.9608 15.0183 19.6836 16.8267Z" fill="black"/>
</g>
<defs>
<clipPath id="clip0_10810_317">
<rect width="48" height="48" fill="white"/>
</clipPath>
</defs>
</svg>
