<svg width="48" height="48" viewBox="0 0 48 48" fill="none" xmlns="http://www.w3.org/2000/svg">
<g clip-path="url(#clip0_10810_315)">
<path fill-rule="evenodd" clip-rule="evenodd" d="M10.8951 37.104C14.3949 40.6047 19.0493 42.5325 23.9995 42.5325V42.5309C28.9497 42.5309 33.6032 40.603 37.1039 37.1023C40.6046 33.6024 42.5325 28.9481 42.5325 23.9979C42.5325 23.7589 42.5279 23.5197 42.5187 23.2808L44.3987 25.537C44.5999 25.7779 44.8881 25.9021 45.1788 25.9021H45.178C45.407 25.9021 45.6377 25.8252 45.8271 25.6671C46.2573 25.3088 46.3156 24.669 45.9572 24.2388L42.2976 19.8473C42.1049 19.6157 41.8192 19.4821 41.5184 19.4821C41.2175 19.4821 40.9318 19.6157 40.7391 19.8473L40.4829 20.1548C40.4639 20.1757 40.4458 20.1974 40.4286 20.2199L37.0795 24.2388C36.7212 24.669 36.7795 25.3088 37.2097 25.6671C37.6399 26.0255 38.2797 25.9672 38.638 25.537L40.49 23.3143C40.4994 23.5423 40.5041 23.7705 40.5041 23.9987C40.5041 33.0996 33.1003 40.5033 23.9995 40.5033C14.8986 40.5033 7.49492 33.0996 7.49492 23.9987C7.49492 14.8979 14.8986 7.49414 23.9995 7.49414C27.1131 7.49414 30.1448 8.36467 32.7673 10.0128C35.3198 11.6169 37.3862 13.8854 38.7427 16.5722C38.9954 17.0725 39.6056 17.2737 40.1051 17.0209C40.6055 16.7682 40.8066 16.1589 40.5539 15.6585C39.0318 12.6429 36.7118 10.0964 33.8466 8.29621C30.9003 6.44528 27.4951 5.46657 23.9995 5.46657C19.0493 5.46657 14.3949 7.39526 10.8951 10.8951C7.39519 14.395 5.46735 19.0494 5.46735 23.9996C5.46735 28.9497 7.39519 33.6033 10.8951 37.104Z" fill="black"/>
<path fill-rule="evenodd" clip-rule="evenodd" d="M15.5783 27.6905H17.2932V21.8013H20.3037V20.3282H12.5568V21.8013H15.5783V27.6905ZM25.9293 27.6906H27.1227H27.8048H29.2356L31.2387 25.1669L33.1885 27.6906H35.3775L32.247 23.9473L35.3496 20.3283H33.2341L31.2691 22.7421L29.3455 20.3283H27.2334L30.2591 23.9566L27.5586 27.1717L24.3117 20.3283H22.5689L19.1096 27.6906H20.9732L21.6747 26.1414H25.2228L25.9293 27.6906ZM24.5509 24.6682H22.3416L23.442 22.2384L24.5509 24.6682Z" fill="black"/>
</g>
<defs>
<clipPath id="clip0_10810_315">
<rect width="48" height="48" fill="white"/>
</clipPath>
</defs>
</svg>
