<svg width="48" height="48" viewBox="0 0 48 48" fill="none" xmlns="http://www.w3.org/2000/svg">
<path d="M30.491 35.4286C27.8384 35.4286 25.6794 33.2704 25.6794 30.617C25.6794 27.9635 27.8375 25.8054 30.491 25.8054C32.5755 25.8054 34.4136 27.1355 35.063 29.115L33.4543 29.6433C33.0335 28.3606 31.8423 27.4987 30.491 27.4987C28.7714 27.4987 27.3727 28.8974 27.3727 30.617C27.3727 32.3365 28.7714 33.7352 30.491 33.7352C31.7974 33.7352 32.9751 32.9114 33.4221 31.6846L35.013 32.2646C34.3238 34.1577 32.506 35.4294 30.491 35.4294V35.4286Z" fill="black"/>
<path fill-rule="evenodd" clip-rule="evenodd" d="M8.2482 40.076H39.7518V8.57248H8.2482V40.076ZM37.7198 38.044H10.2802V10.6045H19.4759V19.8127C19.4759 20.2995 19.7417 20.7449 20.1701 20.976C20.5994 21.2063 21.1175 21.1834 21.5239 20.9159L24.0013 19.2835L26.4786 20.9159C26.6988 21.0615 26.9511 21.1343 27.2051 21.1343H27.2076C27.4218 21.1343 27.6377 21.0818 27.8341 20.976C28.2625 20.7449 28.5284 20.2995 28.5284 19.8127V10.6045H37.7198V38.044ZM26.4964 10.6045V18.4936L24.0021 16.8502L21.5079 18.4936V10.6045H26.4964Z" fill="black"/>
</svg>
