<svg width="48" height="48" viewBox="0 0 48 48" fill="none" xmlns="http://www.w3.org/2000/svg">
<path fill-rule="evenodd" clip-rule="evenodd" d="M31.3308 15.8532L31.965 17.7836C33.4971 17.2803 34.6837 16.1448 35.2749 14.7212H38.9398L40.6552 25.9971L40.6577 26.0157C40.7754 26.704 40.4299 27.3805 39.8373 27.6235L40.6086 29.504L40.607 29.5048C42.07 28.9045 42.9327 27.2992 42.6618 25.6847L40.6857 12.69H35.6884C35.6885 12.6731 35.6886 12.6562 35.6886 12.6393C35.6886 9.65391 33.2604 7.22567 30.2751 7.22567C27.2897 7.22567 24.8615 9.65391 24.8615 12.6393C24.8615 12.6562 24.8615 12.6731 24.8617 12.69H20.0914L18.928 19.6191L20.9321 19.9553L21.811 14.7212H25.2804C25.8532 16.0896 26.9768 17.2005 28.4226 17.7269L29.1177 15.8176C28.5107 15.5966 27.9945 15.2104 27.6127 14.7212H32.9429C32.5401 15.2378 31.9861 15.6382 31.3308 15.8532ZM33.6562 12.69C33.6565 12.6731 33.6566 12.6562 33.6566 12.6393C33.6566 10.7749 32.1394 9.25767 30.2751 9.25767C28.4107 9.25767 26.8935 10.7749 26.8935 12.6393C26.8935 12.6562 26.8936 12.6731 26.8938 12.69H33.6562Z" fill="black"/>
<path fill-rule="evenodd" clip-rule="evenodd" d="M11.0828 33.4112H4.01745C2.99044 33.4112 2.15478 32.5756 2.15478 31.5486V20.1034C2.15478 19.0764 2.99044 18.2407 4.01745 18.2407H11.0828C12.0802 18.2407 12.8971 19.0288 12.9434 20.015C13.9257 19.7571 15.4605 19.363 17.2914 18.9231C20.6044 18.1272 22.6347 19.3422 23.0462 19.6233L32.2833 24.8794C33.9257 25.8141 34.6932 27.7018 34.2872 29.4548C35.1131 29.1751 35.8883 28.9104 36.3693 28.7454L36.3871 28.7394L40.6323 27.3712C41.6432 27.0453 42.7236 27.1342 43.6744 27.621C44.6252 28.1078 45.3279 28.9333 45.6539 29.9442C45.9798 30.9552 45.8909 32.0355 45.4041 32.9863C44.9172 33.9371 44.0918 34.6398 43.0809 34.9658L38.8458 36.3306L32.1394 38.6547C30.9363 39.0476 29.8636 39.1958 28.9322 39.1958C26.5158 39.1958 25.0418 38.2018 24.66 37.9088L12.9455 31.2423V31.5486C12.9455 32.5756 12.1098 33.4112 11.0828 33.4112ZM12.9455 28.9042L25.8309 36.2367L25.8936 36.2934C26.0316 36.4051 27.9535 37.8809 31.5019 36.726L38.2125 34.4002L42.4577 33.032C42.9522 32.8729 43.3569 32.5274 43.5957 32.0601C43.8353 31.5927 43.8793 31.0627 43.7201 30.5682C43.5609 30.0738 43.2154 29.6691 42.7481 29.4295C42.2807 29.1899 41.7508 29.1458 41.2563 29.305L37.0204 30.6707C36.7199 30.774 32.1403 32.3437 31.3054 32.5731C29.9389 32.9482 28.9966 32.6443 27.9196 32.0313L22.1445 28.7445L23.1495 26.9784L28.9246 30.2651C29.0032 30.3099 29.0778 30.351 29.149 30.3885L29.1566 30.3751C30.1853 30.9601 31.4976 30.5994 32.0826 29.5716C32.6677 28.5429 32.307 27.2305 31.2791 26.6455L21.9278 21.3242L21.8888 21.292C21.7644 21.2057 20.3538 20.2769 17.7664 20.8983C15.5865 21.4219 13.8334 21.8796 12.9455 22.1158V28.9042ZM4.18678 31.3792H10.9135V20.2727H4.18678V31.3792Z" fill="black"/>
</svg>
