<svg width="48" height="48" viewBox="0 0 48 48" fill="none" xmlns="http://www.w3.org/2000/svg">
<path fill-rule="evenodd" clip-rule="evenodd" d="M4.49667 31.7219H11.5621C12.5891 31.7219 13.4247 30.8862 13.4247 29.8592V29.5524L25.14 36.2194C25.5218 36.5123 26.9959 37.5063 29.4123 37.5063H29.414C30.3453 37.5063 31.418 37.3581 32.6211 36.9653L39.3267 34.6412L43.5617 33.2764C45.6555 32.6016 46.8096 30.3495 46.1348 28.2556C45.8088 27.2447 45.106 26.4192 44.1552 25.9324C43.2044 25.4456 42.1241 25.3567 41.1132 25.6826L36.868 27.0508L36.8502 27.0568C36.3689 27.2219 35.5927 27.4869 34.7659 27.7668C34.9213 27.0985 34.9084 26.3967 34.7209 25.714C34.4254 24.6353 33.7294 23.7387 32.7625 23.1884L23.5254 17.9323C23.1139 17.6512 21.0836 16.4362 17.7706 17.2321C15.9397 17.672 14.4049 18.0662 13.4226 18.324C13.3755 17.3386 12.5589 16.5513 11.5621 16.5513H4.49667C3.46966 16.5513 2.634 17.387 2.634 18.414V29.8592C2.634 30.8862 3.46966 31.7219 4.49667 31.7219ZM13.4247 20.4248V27.2143L26.3109 34.5472L26.3736 34.6039C26.5124 34.7157 28.4335 36.1914 31.9819 35.0366L38.6934 32.7108L42.9386 31.3426C43.9656 31.0115 44.532 29.9066 44.201 28.8788C44.0418 28.3843 43.6963 27.9796 43.229 27.7409C42.7616 27.5013 42.2316 27.4572 41.7372 27.6164L37.5005 28.9821L37.421 29.0093L37.4205 29.0095C36.7352 29.244 32.578 30.6669 31.7863 30.8845C30.4198 31.2596 29.4775 30.9557 28.4005 30.3427L22.6254 27.0559L23.6304 25.2898L29.4055 28.5765C29.4834 28.6209 29.5573 28.6616 29.6278 28.6989L29.6358 28.6849C30.6645 29.2699 31.9768 28.9093 32.5619 27.8814C32.8438 27.3861 32.9149 26.8078 32.7625 26.2524C32.6101 25.697 32.2537 25.2364 31.7584 24.9545L22.407 19.6332L22.368 19.601C22.2436 19.5147 20.8338 18.5859 18.2456 19.2073C16.0662 19.7309 14.3128 20.1886 13.4247 20.4248ZM11.3927 29.6899H4.666V18.5833H11.3927V29.6899Z" fill="black"/>
<path d="M34.4305 20.4545C31.6839 20.4545 29.4496 18.2201 29.4496 15.4735C29.4496 15.1179 29.4877 14.7615 29.563 14.4152C29.563 14.411 29.5647 14.4067 29.5656 14.4025C29.5706 14.3797 29.5757 14.3568 29.5808 14.3339C30.2395 11.4172 33.5982 8.29467 33.7413 8.16344C34.1299 7.80445 34.7294 7.80445 35.1188 8.16344C35.2619 8.29467 38.6198 11.4172 39.2793 14.3331C39.3666 14.7056 39.4106 15.0892 39.4106 15.4744C39.4106 18.221 37.1762 20.4553 34.4297 20.4553L34.4305 20.4545ZM31.5518 14.8335C31.5518 14.8335 31.5519 14.8377 31.551 14.8394C31.5053 15.0468 31.4824 15.2602 31.4824 15.4735C31.4824 17.0991 32.8049 18.4225 34.4314 18.4225C36.0578 18.4225 37.3803 17.1 37.3803 15.4735C37.3803 15.2441 37.354 15.0155 37.3015 14.7937L37.299 14.7835C37.0915 13.8632 36.4244 12.6965 35.3703 11.4104C35.0325 10.9989 34.704 10.6349 34.4314 10.347C34.1587 10.6349 33.8302 10.9989 33.4924 11.4104C32.4374 12.6965 31.7711 13.8632 31.5637 14.7835C31.5637 14.7861 31.562 14.7894 31.562 14.792L31.5527 14.8326L31.5518 14.8335Z" fill="black"/>
</svg>
